<svg width="20" height="20" viewBox="0 0 20 20" fill="none" xmlns="http://www.w3.org/2000/svg">
<path fill-rule="evenodd" clip-rule="evenodd" d="M10.0001 2C8.9392 2 7.92179 2.42143 7.17164 3.17157C6.4215 3.92172 6.00007 4.93913 6.00007 6V7H5.00007C4.75389 6.99998 4.51635 7.09078 4.33294 7.25499C4.14954 7.41921 4.03315 7.64531 4.00607 7.89L3.00607 16.89C2.9906 17.0298 3.00478 17.1712 3.04768 17.3051C3.09058 17.439 3.16124 17.5624 3.25504 17.6671C3.34884 17.7719 3.46368 17.8556 3.59205 17.913C3.72043 17.9704 3.85946 18 4.00007 18H16.0001C16.1407 18 16.2797 17.9704 16.4081 17.913C16.5365 17.8556 16.6513 17.7719 16.7451 17.6671C16.8389 17.5624 16.9096 17.439 16.9525 17.3051C16.9954 17.1712 17.0095 17.0298 16.9941 16.89L15.9941 7.89C15.967 7.64531 15.8506 7.41921 15.6672 7.25499C15.4838 7.09078 15.2463 6.99998 15.0001 7H14.0001V6C14.0001 4.93913 13.5786 3.92172 12.8285 3.17157C12.0784 2.42143 11.0609 2 10.0001 2ZM12.0001 7V6C12.0001 5.46957 11.7894 4.96086 11.4143 4.58579C11.0392 4.21071 10.5305 4 10.0001 4C9.46964 4 8.96093 4.21071 8.58586 4.58579C8.21078 4.96086 8.00007 5.46957 8.00007 6V7H12.0001ZM6.00007 10C6.00007 9.73478 6.10543 9.48043 6.29296 9.29289C6.4805 9.10536 6.73485 9 7.00007 9C7.26529 9 7.51964 9.10536 7.70718 9.29289C7.89471 9.48043 8.00007 9.73478 8.00007 10C8.00007 10.2652 7.89471 10.5196 7.70718 10.7071C7.51964 10.8946 7.26529 11 7.00007 11C6.73485 11 6.4805 10.8946 6.29296 10.7071C6.10543 10.5196 6.00007 10.2652 6.00007 10ZM13.0001 9C12.7349 9 12.4805 9.10536 12.293 9.29289C12.1054 9.48043 12.0001 9.73478 12.0001 10C12.0001 10.2652 12.1054 10.5196 12.293 10.7071C12.4805 10.8946 12.7349 11 13.0001 11C13.2653 11 13.5196 10.8946 13.7072 10.7071C13.8947 10.5196 14.0001 10.2652 14.0001 10C14.0001 9.73478 13.8947 9.48043 13.7072 9.29289C13.5196 9.10536 13.2653 9 13.0001 9Z" fill="#001C1F"/>
</svg>
