<svg width="22" height="22" viewBox="0 0 22 22" fill="none" xmlns="http://www.w3.org/2000/svg">
<g clip-path="url(#clip0_539_1023)">
<path d="M15.3751 0.545508C15.3284 0.4958 13.644 0.56513 12.1783 2.07862C10.7125 3.5908 10.938 5.32537 10.971 5.36984C11.004 5.41432 13.061 5.48365 14.3741 3.72423C15.6873 1.96481 15.4219 0.596525 15.3751 0.545508ZM19.9319 15.8936C19.8659 15.7681 16.735 14.2794 17.0265 11.4173C17.318 8.5538 19.3296 7.76893 19.3613 7.6839C19.3929 7.59888 18.5404 6.65049 17.637 6.17041C16.9737 5.83194 16.2397 5.63802 15.4879 5.60269C15.3394 5.59876 14.8238 5.47842 13.7636 5.75443C13.0651 5.93626 11.4908 6.52491 11.0576 6.54846C10.6231 6.572 9.33065 5.86562 7.94052 5.67856C7.0509 5.51504 6.10765 5.84992 5.43252 6.10762C4.75877 6.36401 3.47727 7.09394 2.58077 9.03388C1.68427 10.9725 2.15315 14.044 2.48865 14.9989C2.82415 15.9525 3.34802 17.5157 4.23902 18.6564C5.03102 19.9436 6.08152 20.837 6.52015 21.1405C6.95877 21.444 8.19627 21.6454 9.05427 21.2281C9.74452 20.8252 10.9903 20.5937 11.4825 20.6107C11.9734 20.6277 12.9414 20.8122 13.9328 21.3158C14.7179 21.5735 15.4604 21.4662 16.2043 21.1784C16.9481 20.8893 18.0248 19.7931 19.2815 17.5707C19.7586 16.5372 19.9759 15.9787 19.9319 15.8936Z" fill="#111111"/>
<path d="M15.3751 0.545508C15.3284 0.4958 13.644 0.56513 12.1783 2.07862C10.7125 3.5908 10.938 5.32537 10.971 5.36984C11.004 5.41432 13.061 5.48365 14.3741 3.72423C15.6873 1.96481 15.4219 0.596525 15.3751 0.545508ZM19.9319 15.8936C19.8659 15.7681 16.735 14.2794 17.0265 11.4173C17.318 8.5538 19.3296 7.76893 19.3613 7.6839C19.3929 7.59888 18.5404 6.65049 17.637 6.17041C16.9737 5.83194 16.2397 5.63802 15.4879 5.60269C15.3394 5.59876 14.8238 5.47842 13.7636 5.75443C13.0651 5.93626 11.4908 6.52491 11.0576 6.54846C10.6231 6.572 9.33065 5.86562 7.94052 5.67856C7.0509 5.51504 6.10765 5.84992 5.43252 6.10762C4.75877 6.36401 3.47727 7.09394 2.58077 9.03388C1.68427 10.9725 2.15315 14.044 2.48865 14.9989C2.82415 15.9525 3.34802 17.5157 4.23902 18.6564C5.03102 19.9436 6.08152 20.837 6.52015 21.1405C6.95877 21.444 8.19627 21.6454 9.05427 21.2281C9.74452 20.8252 10.9903 20.5937 11.4825 20.6107C11.9734 20.6277 12.9414 20.8122 13.9328 21.3158C14.7179 21.5735 15.4604 21.4662 16.2043 21.1784C16.9481 20.8893 18.0248 19.7931 19.2815 17.5707C19.7586 16.5372 19.9759 15.9787 19.9319 15.8936Z" fill="#111111"/>
</g>
<defs>
<clipPath id="clip0_539_1023">
<rect width="22" height="20.9299" fill="white" transform="translate(0 0.535034)"/>
</clipPath>
</defs>
</svg>
