<svg width="20" height="20" viewBox="0 0 20 20" fill="none" xmlns="http://www.w3.org/2000/svg">
<path d="M10.3615 2.293C10.1739 2.10553 9.91963 2.00021 9.65446 2.00021C9.3893 2.00021 9.13499 2.10553 8.94746 2.293L1.94746 9.293C1.7653 9.4816 1.66451 9.7342 1.66679 9.9964C1.66906 10.2586 1.77423 10.5094 1.95964 10.6948C2.14505 10.8802 2.39586 10.9854 2.65806 10.9877C2.92026 10.99 3.17286 10.8892 3.36146 10.707L3.65446 10.414V17C3.65446 17.2652 3.75982 17.5196 3.94735 17.7071C4.13489 17.8946 4.38924 18 4.65446 18H6.65446C6.91968 18 7.17403 17.8946 7.36157 17.7071C7.5491 17.5196 7.65446 17.2652 7.65446 17V15C7.65446 14.7348 7.75982 14.4804 7.94735 14.2929C8.13489 14.1054 8.38924 14 8.65446 14H10.6545C10.9197 14 11.174 14.1054 11.3616 14.2929C11.5491 14.4804 11.6545 14.7348 11.6545 15V17C11.6545 17.2652 11.7598 17.5196 11.9474 17.7071C12.1349 17.8946 12.3892 18 12.6545 18H14.6545C14.9197 18 15.174 17.8946 15.3616 17.7071C15.5491 17.5196 15.6545 17.2652 15.6545 17V10.414L15.9475 10.707C16.1361 10.8892 16.3887 10.99 16.6509 10.9877C16.9131 10.9854 17.1639 10.8802 17.3493 10.6948C17.5347 10.5094 17.6399 10.2586 17.6421 9.9964C17.6444 9.7342 17.5436 9.4816 17.3615 9.293L10.3615 2.293Z" fill="#001C1F"/>
</svg>
