<svg width="20" height="20" viewBox="0 0 20 20" fill="none" xmlns="http://www.w3.org/2000/svg">
<path d="M13.3334 5.83333C13.3334 6.71739 12.9822 7.56523 12.3571 8.19036C11.732 8.81548 10.8841 9.16667 10.0001 9.16667C9.11603 9.16667 8.26818 8.81548 7.64306 8.19036C7.01794 7.56523 6.66675 6.71739 6.66675 5.83333C6.66675 4.94928 7.01794 4.10143 7.64306 3.47631C8.26818 2.85119 9.11603 2.5 10.0001 2.5C10.8841 2.5 11.732 2.85119 12.3571 3.47631C12.9822 4.10143 13.3334 4.94928 13.3334 5.83333ZM10.0001 11.6667C8.45299 11.6667 6.96925 12.2812 5.87529 13.3752C4.78133 14.4692 4.16675 15.9529 4.16675 17.5H15.8334C15.8334 15.9529 15.2188 14.4692 14.1249 13.3752C13.0309 12.2812 11.5472 11.6667 10.0001 11.6667Z" stroke="white" stroke-width="1.5" stroke-linecap="round" stroke-linejoin="round"/>
</svg>
